<?xml version="1.0" encoding="UTF-8"?>
<svg width="256px" height="238px" viewBox="0 0 256 238" version="1.1" xmlns="http://www.w3.org/2000/svg" xmlns:xlink="http://www.w3.org/1999/xlink">
    <!-- Generator: Sketch 53.2 (72643) - https://sketchapp.com -->
    <title>logo_nanoxplore</title>
    <desc>Created with Sketch.</desc>
    <g id="Page-1" stroke="none" stroke-width="1" fill="none" fill-rule="evenodd">
        <g id="logo_nanoxplore" transform="translate(0.000000, -1.000000)" fill-rule="nonzero">
            <g id="Group" transform="translate(0.000000, 199.000000)" fill="#3D3D3D">
                <g transform="translate(0.000000, 1.000000)">
                    <path d="M27.6,31.6 L21.8,31.6 C20.2,31.6 19.4,31.2 18.6,29.7 L7.9,10.6 L7.5,10.6 L7.5,31.5 L0.6,31.5 L0.6,0.6 L7.4,0.6 C9.1,0.6 9.8,1 10.6,2.5 L20.3,20.1 L20.7,20.1 L20.7,0.6 L27.6,0.6 L27.6,31.6 Z" id="Path"></path>
                    <path d="M35.5,8.7 C36.5,7.7 37.6,7.3 39.8,7.3 L48.6,7.3 C51.1,7.3 52.5,7.7 53.4,8.7 C54.5,9.8 54.9,11.1 54.9,15.2 L54.9,31.6 L48.1,31.6 L48.1,28.8 C45.2,31.2 44.1,31.6 42,31.6 L38.7,31.6 C36.5,31.6 35.4,31.3 34.4,30.4 C33.6,29.6 33,28.1 33,25 C33,22 33.4,20.1 34.5,19.1 C35.6,18 37,17.5 41.4,17.5 C43.7,17.5 46.2,17.8 48.2,18.2 L48.2,16 C48.2,13.6 48.1,13.1 47.8,12.8 C47.5,12.5 47,12.4 46,12.4 L42.6,12.4 C41.7,12.4 41.2,12.5 40.9,12.8 C40.5,13.2 40.5,13.6 40.4,15.1 L34,15.1 C34,11.1 34.4,9.7 35.5,8.7 Z M48.1,25.6 L48.1,21.5 L43.6,21.5 C41,21.5 40.4,21.7 40,22.1 C39.6,22.5 39.5,23.1 39.5,24.2 C39.5,25.4 39.6,26.1 39.9,26.5 C40.2,26.9 40.7,26.9 41.6,26.9 L43.5,26.9 C45,26.8 45.9,26.7 48.1,25.6 Z" id="Shape"></path>
                    <path d="M60.7,31.6 L60.7,7.3 L67.5,7.3 L67.5,10.5 C70.6,7.7 71.6,7.2 73.9,7.2 L76.9,7.2 C79,7.2 80.3,7.6 81.2,8.6 C82.2,9.6 82.6,10.9 82.6,14.4 L82.6,31.5 L75.8,31.5 L75.8,15.1 C75.8,14.1 75.6,13.5 75.3,13.1 C74.9,12.7 74.5,12.6 73.3,12.6 L71.4,12.6 C70.3,12.6 69.2,12.9 67.6,13.6 L67.6,31.5 L60.7,31.5 L60.7,31.6 Z" id="Path"></path>
                    <path d="M89.9,30.1 C88.3,28.5 87.7,26.3 87.7,19.5 C87.7,12.6 88.3,10.4 89.9,8.8 C90.9,7.7 92.2,7.3 94.7,7.3 L103,7.3 C105.5,7.3 106.8,7.7 107.8,8.8 C109.4,10.4 110,12.6 110,19.5 C110,26.4 109.4,28.6 107.8,30.1 C106.7,31.2 105.5,31.6 103,31.6 L94.7,31.6 C92.3,31.6 91,31.2 89.9,30.1 Z M95,25.8 C95.3,26.2 95.6,26.2 96.8,26.2 L101,26.2 C102.1,26.2 102.5,26.1 102.8,25.8 C103.2,25.4 103.4,24.7 103.4,19.4 C103.4,14.2 103.2,13.4 102.8,13 C102.5,12.7 102.2,12.6 101,12.6 L96.8,12.6 C95.7,12.6 95.3,12.7 95,13 C94.6,13.4 94.4,14.2 94.4,19.4 C94.4,24.7 94.7,25.5 95,25.8 Z" id="Shape"></path>
                </g>
                <g transform="translate(112.000000, 0.000000)">
                    <polygon id="Path" points="15 22.2 14.6 22.2 7.8 32.6 0.2 32.6 10.6 16.9 0.4 1.7 8.5 1.7 15 11.5 15.4 11.5 21.8 1.7 29.5 1.7 19.3 16.9 29.8 32.6 21.8 32.6"></polygon>
                    <path d="M40,8.3 L40,11.4 C43,8.7 44.1,8.2 46.1,8.2 L48.7,8.2 C51.3,8.2 52.6,8.6 53.7,9.7 C55.1,11.1 55.7,13.4 55.7,20.4 C55.7,27.4 55,29.6 53.5,31 C52.4,32.1 51,32.5 48.6,32.5 L45.9,32.5 C43.9,32.5 42.7,32.1 40,29.7 L40,39.5 L33.2,39.5 L33.2,8.1 L40,8.1 L40,8.3 Z M40,14.7 L40,26.3 C41.4,27 42.5,27.2 43.6,27.2 L46,27.2 C47.2,27.2 47.8,27.1 48.2,26.7 C48.8,26.1 49,25 49,20.5 C49,16 48.8,14.8 48.2,14.3 C47.8,13.9 47.2,13.7 46,13.7 L43.7,13.7 C42.5,13.7 41.4,14 40,14.7 Z" id="Shape"></path>
                    <polygon id="Path" points="60.9 32.6 60.9 0 67.7 0 67.7 32.6"></polygon>
                    <path d="M75,31.1 C73.4,29.5 72.8,27.3 72.8,20.5 C72.8,13.6 73.4,11.4 75,9.8 C76,8.7 77.3,8.3 79.8,8.3 L88.1,8.3 C90.6,8.3 91.9,8.7 92.9,9.8 C94.5,11.4 95.1,13.6 95.1,20.5 C95.1,27.4 94.5,29.6 92.9,31.1 C91.8,32.2 90.6,32.6 88.1,32.6 L79.8,32.6 C77.4,32.6 76.1,32.2 75,31.1 Z M80.1,26.8 C80.4,27.2 80.7,27.2 81.9,27.2 L86.1,27.2 C87.2,27.2 87.6,27.1 87.9,26.8 C88.3,26.4 88.5,25.7 88.5,20.4 C88.5,15.2 88.3,14.4 87.9,14 C87.6,13.7 87.3,13.6 86.1,13.6 L81.9,13.6 C80.8,13.6 80.4,13.7 80.1,14 C79.7,14.4 79.5,15.2 79.5,20.4 C79.6,25.7 79.8,26.5 80.1,26.8 Z" id="Shape"></path>
                    <path d="M100.4,32.6 L100.4,8.3 L107.2,8.3 L107.2,12 C109.7,9.4 111,8.2 112.9,8.2 L115.5,8.2 L115.5,14.9 L112.4,14.9 C110.5,14.9 109.1,15.1 107.2,15.9 L107.2,32.6 L100.4,32.6 Z" id="Path"></path>
                    <path d="M125.4,22 C125.4,25.8 125.7,26.9 126,27.2 C126.3,27.6 127,27.6 128.2,27.6 L132.3,27.6 C133.7,27.6 134,27.5 134.3,27.2 C134.5,26.9 134.6,26.3 134.7,24.5 L140.9,24.5 C140.9,28.1 140.5,30 139.3,31.2 C138.5,32 137.6,32.6 135,32.6 L126,32.6 C123.5,32.6 122.2,32.2 121.2,31.1 C119.6,29.5 119,27.6 119,20.5 C119,13.3 119.6,11.4 121.2,9.8 C122.2,8.7 123.5,8.3 126,8.3 L134.2,8.3 C136.7,8.3 138,8.7 139,9.8 C140.6,11.4 140.9,13.3 140.9,20.3 L140.9,21.1 C140.9,21.8 140.7,22.1 139.9,22.1 L125.4,22.1 L125.4,22 Z M125.4,18.2 L134.4,18.2 C134.4,14.9 134.2,14 133.9,13.7 C133.6,13.4 133.2,13.3 131.9,13.3 L128.2,13.3 C127,13.3 126.3,13.4 126,13.7 C125.6,14.1 125.4,14.8 125.4,18.2 Z" id="Shape"></path>
                </g>
            </g>
            <g id="Group" fill="#B32625">
                <path d="M199.1,123.7 L185.5,108 C183.8,106.1 183.7,103.3 185.1,101.2 L228.7,38.8 L228.7,38.8 L228.9,38.6 C231.5,34.9 228.8,29.9 224.4,29.9 L221.2,29.9 L205.9,29.9 L203,29.9 L169.3,78.2 C167.2,81.2 162.9,81.4 160.6,78.6 L160.6,78.6 L93.6,0.9 L152.2,85.8 L190.7,141.7 L199.9,154.8 L220.5,184.2 L220.5,184.2 L221.1,185 C222.9,187.5 224.6,188.4 226.4,188.4 L228.9,188.4 L243.3,188.4 L255.5,188.4 L199.1,123.7 Z" id="Path"></path>
                <path d="M113.2,109.1 L113.2,65.9 L113.2,64.2 L112.3,62.7 L112.3,62.7 L106.1,52.4 L84.3,16.5 L84.3,38.2 L84.3,111.5 L82.5,111.5 L41.7,37.6 C38.4,31.5 35.4,29.8 28.4,29.8 L6.1,29.8 L0,29.8 L0,35.9 L0,153.5 L0,159.6 L6.1,159.6 L15.7,159.6 L22.9,159.6 C26.3,159.6 29,156.9 29,153.5 L29,71.7 L30.8,71.7 L75.5,151.8 C75.5,151.8 75.5,151.9 75.6,151.9 C77.8,155.7 83.3,155.9 85.8,152.3 L112.3,114.6 C113,113.6 113.4,112.4 113.4,111.1 L113.4,109.1 L113.2,109.1 Z" id="Path"></path>
                <path d="M152.6,132.8 L152.6,132.8 L152.6,132.8 L141.9,117.3 L112.5,159.4 L112.5,159.4 L112.5,159.4 L113.2,159.4 L113.2,159.4 L137.7,159.4 L137.7,159.4 C141.9,159.3 145.8,157.3 148.3,153.8 L150.4,150.8 L150.4,150.8 L157.8,140.3 L152.6,132.8 L152.6,132.8 Z" id="Path"></path>
            </g>
        </g>
    </g>
</svg>